<svg xmlns="http://www.w3.org/2000/svg" version="1.1" xmlns:xlink="http://www.w3.org/1999/xlink" xmlns:svgjs="http://svgjs.com/svgjs" width="1000" height="1000"><rect width="1000" height="1000" rx="200" ry="200" fill="#362d7b"></rect><g transform="matrix(2.3247704289201443,0,0,2.3247704289201443,99.98568970968398,203.32033522741705)"><svg xmlns="http://www.w3.org/2000/svg" version="1.1" xmlns:xlink="http://www.w3.org/1999/xlink" xmlns:svgjs="http://svgjs.com/svgjs" width="344.12" height="255.24"><svg viewBox="0 0 344.12 255.24" version="1.1" id="svg4" xmlns="http://www.w3.org/2000/svg"><defs id="defs1"><style id="style1">.cls-1{fill:#f1ac27;fill-rule:evenodd}</style></defs><g id="Layer_2" data-name="Layer 2"><g id="Layer_1-2" data-name="Layer 1"><g id="symbol"><path class="cls-1" d="m88.08 215.59-11.33-23.7-.21-.31-24.32-51v-.1c2.68 5.67 5.36 11.23 8 16.9 2.78 5.86 5.6 11.62 8.38 17.5.62 1.14 1.14 2.37 1.65 3.51 2.68 5.56 5.26 11.13 7.94 16.69 3.4 6.81 6.7 13.61 9.89 20.51Z" id="path1"></path><g id="Group-3-Copy-2" style="fill:#fff"><path d="M123.17 171.72c5.15-10.41 9.17-19.48 9.58-20.41v-.1l65.86-138.83C204.9 4.13 212.32 0 220.77 0a26.27 26.27 0 0 1 17.52 6.8 30.43 30.43 0 0 1 4.85 6.39l97.6 205.62c2.68 5.66 3.71 10.2 3.29 13.6-.92 6.49-4.74 15.67-12 19.38-10 5.05-20.51 4.63-29.27-1.86-1.86-1.34-4.23-4.12-7-8.24L221 86.38 145.74 241.8c-5.26 8.86-12.78 13.29-22.67 13.29a25.26 25.26 0 0 1-21-10.82 25.76 25.76 0 0 1-1.85-3.19c-.11-.21-.21-.52-.31-.72s-.21-.52-.31-.73l-5.77-12L90.6 221Z" id="path2" style="fill:#fff;fill-rule:evenodd"></path></g><path class="cls-1" d="m88.08 215.59-11.33-23.7-.21-.31c-2.06-4.43-4.23-8.86-6.29-13.3-.51-1.13-1.13-2.37-1.65-3.5-2.78-5.87-5.56-11.65-8.34-17.52-2.68-5.67-5.36-11.23-8-16.9Q29.33 92.27 6 44.3C3.36 38.74.58 32.86.07 26.68a25.46 25.46 0 0 1 13-23.81A25.6 25.6 0 0 1 40.05 5c6.19 4.74 9.8 12.17 13.2 19.28L123 171.89l-23.5 44.22c-3.5 6.29-6.28 7.83-8.76 5l-.2-.21-.31-.51-1.55-3.51" id="path3"></path></g><path d="m90.35 220.44-1.24-2.89c7.63 2.68 9.28-10.2 9.79-12.57 3.71-16.7 5.47-41.74 6.81-70 0-.11.92 2.16.92 2.06l15 31.43c0 .11.1.21.1.31.52 1 .93 2.06 1.44 3.09 0 .11.11.21.11.31l-1.14 2.17-12 22.26-11.65 21.66c-1.85 2.89-3.5 4-4.95 4.23h-.72a4.64 4.64 0 0 1-2.26-1.44" id="path4" style="opacity:.1;isolation:isolate"></path></g></g></svg></svg></g></svg>