<?xml version="1.0" encoding="utf-8"?>
<!-- Generator: Adobe Illustrator 26.3.0, SVG Export Plug-In . SVG Version: 6.00 Build 0)  -->
<svg version="1.1" id="Layer_1" xmlns="http://www.w3.org/2000/svg" xmlns:xlink="http://www.w3.org/1999/xlink" x="0px" y="0px"
	 viewBox="0 0 1851.6 255.5" style="enable-background:new 0 0 1851.6 255.5;" xml:space="preserve">
<style type="text/css">
	.st0{fill:#FFFFFF;}
</style>
<g>
	<path class="st0" d="M1275.6,8.8c-0.9-2.4-3.3-4-5.9-3.9h-3.5c-3.1,0-4.8,1.8-5.9,3.9l-108.8,237.3c-2.2,4.5,0.6,9.1,5.9,9.1h35.8
		c2.6,0,4.9-1.5,5.9-3.9l68.7-154.2l68.8,154.1c0.9,2.4,3.3,4,5.9,3.9h35.8c5.2,0,8-4.5,5.9-9.1L1275.6,8.8z"/>
	<path class="st0" d="M661.6,5.2h-35.8c-2.6,0-4.9,1.5-5.9,3.9l-68.7,154.3L482.4,9.1c-1-2.4-3.3-4-5.9-3.9h-35.8
		c-5.2,0-8,4.5-5.9,9.1l108.7,237.2c1,2.4,3.3,4,5.9,3.9h3.5c3.1,0,4.8-1.8,5.9-3.9L667.5,14.3C669.7,9.8,666.9,5.2,661.6,5.2z"/>
	<path class="st0" d="M741.2,5.2h-29.6c-3.1,0-6,3.2-6,6.8v236.6c0,3.6,2.8,6.8,6,6.8h29.6c3.1,0,6-3.2,6-6.8V12
		C747.2,8.4,744.4,5.2,741.2,5.2z"/>
	<path class="st0" d="M983.1,82.1c0-42.6-35.1-76.9-78.1-76.9H802.5c-3.8,0-6.8,3-6.8,6.8h0v236.6c0,3.8,3,6.8,6.8,6.8h33
		c3.7-0.1,6.7-3.1,6.8-6.8v-91.1h39.8l47.7,94.8c1.1,2.1,3.3,3.3,5.7,3.2h37.6c6.1,0,8.6-5.7,6.1-10.4l-49.1-90.8
		C961.3,141.8,983.1,115,983.1,82.1z M901.1,119.2v-0.1h-58.4V48h58.4c19,0,35.5,15.7,35.5,34.7
		C936.6,102.8,920.1,119.2,901.1,119.2z"/>
	<path class="st0" d="M1167.2,48.1c3.7,0,6.7-3.1,6.6-6.8V12c0-3.7-3-6.8-6.7-6.8h-153.2c0,0,0,0-0.1,0c-3.7,0-6.7,3.1-6.6,6.8v29.3
		c0,3.7,3,6.8,6.7,6.8h53.6l0,0v200.5c0.1,3.7,3,6.6,6.7,6.8h32.6c3.7-0.2,6.6-3.1,6.7-6.8V48.1L1167.2,48.1
		C1167.1,48.1,1167.2,48.1,1167.2,48.1z"/>
	<path class="st0" d="M1559.5,212.5h-88.7V12c0-3.7-2.9-6.6-6.6-6.8h-32c0,0,0,0,0,0c-3.7,0.1-6.7,3.1-6.6,6.8l0,0v236.6
		c0,0,0,0,0,0c-0.1,3.7,2.9,6.7,6.6,6.8h127.3c0,0,0,0,0,0c3.7-0.1,6.7-3.1,6.6-6.8v-29.3c0,0,0,0,0,0
		C1566.2,215.6,1563.2,212.6,1559.5,212.5z"/>
	<path class="st0" d="M1644,5.2h-29.6c-3.1,0-6,3.2-6,6.8l0,236.6c0,3.6,2.8,6.8,6,6.8h29.6c3.1,0,6-3.2,6-6.8V12
		C1650,8.4,1647.2,5.2,1644,5.2z"/>
	<path class="st0" d="M1778.2,104.9c-28.4-11.7-41.4-23-41.4-39.7c0-11.3,10.9-24.8,30.9-24.8c19.3,0,46,17.7,48.8,19.5
		c4.2,2.9,9.5,0,12.3-4.2l13.3-20.2c2.5-3.5,1.4-9.6-2.1-11.7c-7-5.3-34.4-23.8-70.2-23.8c-55.9,0-79,36.5-79,68.1
		c0,41.8,32.9,63.1,65.9,76.6c29.5,12,44.6,24.4,44.6,42.5c0,15.2-13.7,27.3-32,27.3c-22.9,0-51.2-20.9-53-22
		c-0.3-0.3-0.7-0.5-1-0.7c-3.9-2.1-8.7-0.7-10.9,3.2l-12.6,22c-3.2,5.7-1.4,7.5,1.9,10.6c7,6.8,33,27.7,77.2,27.7
		c49.5,0,80.7-33.7,80.7-70.2C1851.6,139.3,1812.2,118.7,1778.2,104.9z"/>
	<path class="st0" d="M60.2,157.6c2.8,5.9,5.6,11.7,8.3,17.5c0.3,0.5,0.5,1,0.8,1.6l-10.1-21.2C59.5,156.1,59.9,156.8,60.2,157.6z"
		/>
	<path class="st0" d="M52.2,140.8l7,14.7C56.9,150.5,54.5,145.6,52.2,140.8L52.2,140.8z"/>
	<path class="st0" d="M243.1,13.4c-1.3-2.3-3-4.5-4.9-6.4c-4.8-4.4-11-6.8-17.5-6.8c-8.5,0-15.9,4.1-22.2,12.4l-65.9,138.8v0.1
		c-0.4,0.9-4.4,10-9.6,20.4l0,0.1c-0.5-1-0.9-2-1.4-3c0-0.1-0.1-0.2-0.1-0.3l-15-31.4c0,0.1-0.9-2.2-0.9-2.1c0,0.1,0,0.2,0,0.3
		l-52.4-111c-3.4-7.1-7-14.5-13.2-19.3c-7.9-5.8-18.3-6.6-27-2.2c-8.6,4.8-13.6,14-13,23.8C0.6,33,3.3,38.9,6,44.5
		c15.6,32,31,64,46.3,96.1c2.6,5.7,5.3,11.2,8,16.9c2.8,5.9,5.6,11.7,8.3,17.5c0.5,1.1,1.1,2.4,1.6,3.5c2.1,4.4,4.2,8.9,6.3,13.3
		l-7.1-14.8c0.3,0.6,0.5,1.1,0.7,1.6c2.7,5.6,5.3,11.1,7.9,16.7c1.3,2.5,2.5,5.1,3.8,7.6l6.2,12.9l0.6,1.3l1.6,3.5l0.3,0.4l0.1,0.2
		c0,0.1,0.1,0.1,0.2,0.2l3.1,6.4l5.8,12.1c0.1,0.2,0.2,0.5,0.3,0.7c0.1,0.2,0.2,0.5,0.3,0.7c0.5,1.1,1.2,2.2,1.8,3.2
		c4.8,6.9,12.6,10.9,21,10.8c9.9,0,17.4-4.4,22.7-13.3L221,86.6l74.8,155.3c2.8,4.1,5.1,6.9,7,8.2c8.8,6.5,19.3,6.9,29.3,1.9
		c7.3-3.7,11.1-12.9,12-19.4c0.4-3.4-0.6-7.9-3.3-13.6L243.1,13.4z"/>
</g>
</svg>
