<?xml version="1.0" encoding="utf-8"?>
<!-- Generator: Adobe Illustrator 26.0.2, SVG Export Plug-In . SVG Version: 6.00 Build 0)  -->
<svg version="1.1" id="Layer_1" xmlns="http://www.w3.org/2000/svg" xmlns:xlink="http://www.w3.org/1999/xlink" x="0px" y="0px"
	 viewBox="0 0 1851.6 255.5" style="enable-background:new 0 0 1851.6 255.5;" xml:space="preserve">
<style type="text/css">
	.st0{fill:#FFFFFF;}
	.st1{fill-rule:evenodd;clip-rule:evenodd;fill:#F1AC27;}
	.st2{fill-rule:evenodd;clip-rule:evenodd;fill:#FFFFFF;}
	.st3{opacity:0.1;enable-background:new    ;}
</style>
<g id="Layer_2_00000161620740223244213560000007082484335969221783_">
	<g id="Layer_1-2">
		<path id="Path" class="st0" d="M1267.8,97.1l-68.7,154.2c-1,2.4-3.3,3.9-5.9,3.9h-35.8c-5.3,0-8.1-4.6-5.9-9.1L1260.3,8.8
			c1.1-2.1,2.8-3.9,5.9-3.9h3.5c2.6-0.1,4.9,1.5,5.9,3.9L1384.2,246c2.1,4.6-0.7,9.1-5.9,9.1h-35.8c-2.6,0.1-4.9-1.5-5.9-3.9
			L1267.8,97.1z"/>
		<path id="Path-2" class="st0" d="M551.2,163.4L619.9,9.1c1-2.4,3.3-3.9,5.9-3.9h35.8c5.3,0,8.1,4.6,5.9,9.1L558.8,251.5
			c-1.1,2.1-2.8,3.9-5.9,3.9h-3.5c-2.6,0.1-4.9-1.5-5.9-3.9L434.8,14.3c-2.1-4.6,0.7-9.1,5.9-9.1h35.8c2.6-0.1,4.9,1.5,5.9,3.9
			L551.2,163.4z"/>
		<path id="Path-3" class="st0" d="M705.6,12c0-3.6,2.9-6.8,6-6.8h29.6c3.2,0,6,3.2,6,6.8v236.6c0,3.6-2.9,6.8-6,6.8h-29.6
			c-3.2,0-6-3.2-6-6.8V12z"/>
		<path id="Shape" class="st0" d="M795.7,12c0-3.8,3-6.8,6.8-6.8H905c43,0,78.1,34.3,78.1,76.9c0,32.9-21.8,59.7-53,72.2l49.1,90.8
			c2.5,4.7,0,10.4-6.1,10.4h-37.6c-2.4,0.1-4.6-1.1-5.7-3.2l-47.7-94.8h-39.8v91.1c-0.1,3.7-3.1,6.7-6.8,6.8h-33
			c-3.8,0-6.8-3-6.8-6.8L795.7,12L795.7,12z M901.1,119.2c19,0,35.5-16.4,35.5-36.5c0-19-16.5-34.7-35.5-34.7h-58.4v71.1h58.4V119.2
			z"/>
		<path id="Path-4" class="st0" d="M1067.5,48.1h-53.6c-3.7,0-6.7-3.1-6.7-6.8V12c0-3.7,2.9-6.8,6.6-6.8c0,0,0,0,0.1,0h153.2
			c3.7,0,6.7,3.1,6.7,6.8v29.3c0,3.7-2.9,6.8-6.6,6.8c0,0,0,0-0.1,0h-53.6v200.5c-0.1,3.7-3,6.6-6.7,6.8h-32.6
			c-3.7-0.2-6.6-3.1-6.7-6.8L1067.5,48.1L1067.5,48.1z"/>
		<path id="Path-5" class="st0" d="M1425.6,12c-0.1-3.7,2.9-6.7,6.6-6.8c0,0,0,0,0,0h32c3.7,0.2,6.6,3.1,6.6,6.8v200.5h88.7
			c3.7,0.1,6.7,3.1,6.6,6.8c0,0,0,0,0,0v29.3c0.1,3.7-2.9,6.7-6.6,6.8c0,0,0,0,0,0h-127.3c-3.7-0.1-6.7-3.1-6.6-6.8c0,0,0,0,0,0
			L1425.6,12L1425.6,12z"/>
		<path id="Path-6" class="st0" d="M1608.4,12c0-3.6,2.9-6.8,6-6.8h29.6c3.2,0,6,3.2,6,6.8v236.6c0,3.6-2.9,6.8-6,6.8h-29.6
			c-3.2,0-6-3.2-6-6.8L1608.4,12z"/>
		<path id="Path-7" class="st0" d="M1691.8,217l12.6-22c2.1-3.9,7-5.3,10.9-3.2c0.4,0.2,0.7,0.4,1,0.7c1.8,1.1,30.1,22,53,22
			c18.3,0,32-12.1,32-27.3c0-18.1-15.1-30.5-44.6-42.5c-33-13.5-65.9-34.8-65.9-76.6c0-31.6,23.1-68.1,79-68.1
			c35.8,0,63.2,18.5,70.2,23.8c3.5,2.1,4.6,8.2,2.1,11.7l-13.3,20.2c-2.8,4.2-8.1,7.1-12.3,4.2c-2.8-1.8-29.5-19.5-48.8-19.5
			c-20,0-30.9,13.5-30.9,24.8c0,16.7,13,28,41.4,39.7c34,13.8,73.4,34.4,73.4,80.2c0,36.5-31.2,70.2-80.7,70.2
			c-44.2,0-70.2-20.9-77.2-27.7C1690.4,224.5,1688.6,222.7,1691.8,217z"/>
		<g id="symbol">
			<path class="st1" d="M88.1,215.8l-11.3-23.7l-0.2-0.3l-24.3-51v-0.1c2.7,5.7,5.4,11.2,8,16.9c2.8,5.9,5.6,11.6,8.3,17.5
				c0.6,1.1,1.1,2.4,1.7,3.5c2.7,5.6,5.3,11.1,7.9,16.7C81.6,202.1,84.9,208.9,88.1,215.8z"/>
			<g id="Group-3-Copy-2">
				<path class="st2" d="M123.2,171.9c5.1-10.4,9.2-19.5,9.6-20.4v-0.1l65.9-138.8c6.3-8.2,13.7-12.4,22.2-12.4
					c6.5,0,12.7,2.5,17.5,6.8c1.9,1.9,3.5,4.1,4.9,6.4L340.7,219c2.7,5.7,3.7,10.2,3.3,13.6c-0.9,6.5-4.7,15.7-12,19.4
					c-10,5-20.5,4.6-29.3-1.9c-1.9-1.3-4.2-4.1-7-8.2L221,86.6L145.7,242c-5.3,8.9-12.8,13.3-22.7,13.3c-8.4,0.1-16.2-4-21-10.8
					c-0.7-1-1.3-2.1-1.8-3.2c-0.1-0.2-0.2-0.5-0.3-0.7s-0.2-0.5-0.3-0.7l-5.8-12.1l-3.2-6.6L123.2,171.9z"/>
			</g>
			<path class="st1" d="M88.1,215.8L88.1,215.8l-11.3-23.7l-0.2-0.3c-2.1-4.4-4.2-8.9-6.3-13.3c-0.5-1.1-1.1-2.4-1.7-3.5
				c-2.8-5.9-5.6-11.6-8.3-17.5c-2.7-5.7-5.4-11.2-8-16.9C37,108.5,21.6,76.5,6,44.5C3.4,38.9,0.6,33,0.1,26.9
				c-0.6-9.8,4.4-19,13-23.8c8.7-4.5,19.1-3.6,27,2.2c6.2,4.8,9.8,12.2,13.2,19.3L123,172.1l-23.5,44.2c-3.5,6.3-6.3,7.8-8.8,5.1
				l-0.2-0.2l-0.3-0.5l-1.6-3.5"/>
		</g>
		<path class="st3" d="M90.3,220.6l-1.2-2.9c7.6,2.7,9.3-10.2,9.8-12.6c3.7-16.7,5.5-41.7,6.8-70c0-0.1,0.9,2.2,0.9,2.1l15,31.4
			c0,0.1,0.1,0.2,0.1,0.3c0.5,1,0.9,2.1,1.4,3.1c0,0.1,0.1,0.2,0.1,0.3l-1.1,2.2l-12,22.3l-11.7,21.7c-1.8,2.9-3.5,4-4.9,4.2h-0.7
			c-0.9-0.2-1.7-0.7-2.3-1.4"/>
	</g>
</g>
</svg>
