<svg width="329" height="48" viewBox="0 0 329 48" fill="none" xmlns="http://www.w3.org/2000/svg">
<path d="M24.2112 5.65862C27.7487 3.78063 31.6602 2.87248 35.5999 3.01441C39.5396 3.15634 43.3863 4.34399 46.8 6.4724C47.1232 6.67392 47.3985 6.95408 47.6039 7.2906C47.8093 7.62712 47.9392 8.01074 47.9832 8.41096L48 8.71677V42.4083C48 42.8633 47.8891 43.3102 47.6784 43.7041C47.4678 44.0981 47.1648 44.4253 46.8 44.6527C46.4351 44.8802 46.0213 44.9999 45.6 44.9999C45.1787 44.9999 44.7648 44.8802 44.4 44.6527C41.4812 42.833 38.1703 41.875 34.8 41.875C31.4297 41.875 28.1188 42.833 25.2 44.6527C24.8352 44.8802 24.4213 44.9999 24 44.9999C23.5787 44.9999 23.1648 44.8802 22.8 44.6527C19.9888 42.8997 16.8118 41.9451 13.5662 41.878C10.3205 41.8109 7.11208 42.6336 4.2408 44.2692L3.456 44.7357L3.2088 44.8497L3.0912 44.8912L2.8272 44.9585L2.6808 44.9845L2.4 45H2.2992L2.0352 44.9689L1.8504 44.9326L1.5912 44.8497L1.2888 44.7046L1.0608 44.5594L0.8472 44.3858L0.7032 44.2406L0.528 44.0281L0.3744 43.7975L0.3216 43.7042L0.2448 43.5487L0.1392 43.2817L0.1008 43.1547L0.0384001 42.8697L0.0144001 42.7116L0.00480022 42.5846L0 42.4083V8.71677C1.07021e-05 8.26185 0.110911 7.81495 0.321554 7.42098C0.532198 7.02701 0.835163 6.69986 1.2 6.4724C4.61375 4.34399 8.46043 3.15634 12.4001 3.01441C16.3398 2.87248 20.2513 3.78063 23.7888 5.65862L24 5.77265L24.2112 5.65862Z" fill="white"/>
<path d="M8 12L18.5 34" stroke="black" stroke-width="6" stroke-linecap="round"/>
<path d="M28.9999 12L18.4998 34" stroke="black" stroke-width="6" stroke-linecap="round"/>
<path d="M29 12L39.5 34" stroke="black" stroke-width="6" stroke-linecap="round"/>
<path d="M264.032 39.32C262.091 39.32 260.501 38.5627 259.264 37.048C258.048 35.512 257.44 33.2613 257.44 30.296C257.44 27.3093 258.059 25.048 259.296 23.512C260.533 21.976 262.155 21.208 264.16 21.208C264.992 21.208 265.728 21.3253 266.368 21.56C267.008 21.7733 267.552 22.072 268 22.456C268.469 22.84 268.864 23.2773 269.184 23.768H269.344C269.28 23.4267 269.205 22.936 269.12 22.296C269.035 21.6347 268.992 20.9627 268.992 20.28V14.68H273.76V39H270.112L269.184 36.728H268.992C268.693 37.1973 268.309 37.6347 267.84 38.04C267.392 38.424 266.859 38.7333 266.24 38.968C265.621 39.2027 264.885 39.32 264.032 39.32ZM265.696 35.512C267.019 35.512 267.947 35.128 268.48 34.36C269.013 33.5707 269.291 32.3973 269.312 30.84V30.328C269.312 28.6213 269.045 27.32 268.512 26.424C268 25.528 267.04 25.08 265.632 25.08C264.587 25.08 263.765 25.5387 263.168 26.456C262.571 27.352 262.272 28.6533 262.272 30.36C262.272 32.0667 262.571 33.3573 263.168 34.232C263.765 35.0853 264.608 35.512 265.696 35.512ZM294.618 30.232C294.618 31.6827 294.415 32.9733 294.01 34.104C293.626 35.2347 293.061 36.1947 292.314 36.984C291.589 37.752 290.703 38.3387 289.658 38.744C288.613 39.128 287.429 39.32 286.106 39.32C284.89 39.32 283.759 39.128 282.714 38.744C281.69 38.3387 280.805 37.752 280.058 36.984C279.311 36.1947 278.725 35.2347 278.298 34.104C277.893 32.9733 277.69 31.6827 277.69 30.232C277.69 28.2907 278.031 26.6587 278.714 25.336C279.397 23.992 280.378 22.968 281.658 22.264C282.938 21.56 284.453 21.208 286.202 21.208C287.845 21.208 289.295 21.56 290.554 22.264C291.813 22.968 292.805 23.992 293.53 25.336C294.255 26.6587 294.618 28.2907 294.618 30.232ZM282.554 30.232C282.554 31.384 282.671 32.3547 282.906 33.144C283.162 33.912 283.557 34.4987 284.09 34.904C284.623 35.288 285.317 35.48 286.17 35.48C287.023 35.48 287.706 35.288 288.218 34.904C288.751 34.4987 289.135 33.912 289.37 33.144C289.626 32.3547 289.754 31.384 289.754 30.232C289.754 29.08 289.626 28.12 289.37 27.352C289.135 26.584 288.751 26.008 288.218 25.624C287.685 25.24 286.991 25.048 286.138 25.048C284.879 25.048 283.962 25.4853 283.386 26.36C282.831 27.2133 282.554 28.504 282.554 30.232ZM305.663 39.32C303.935 39.32 302.463 39.0107 301.247 38.392C300.031 37.752 299.103 36.7707 298.463 35.448C297.823 34.1253 297.503 32.4293 297.503 30.36C297.503 28.2267 297.865 26.488 298.591 25.144C299.316 23.8 300.319 22.808 301.599 22.168C302.9 21.528 304.393 21.208 306.079 21.208C307.273 21.208 308.308 21.3253 309.183 21.56C310.079 21.7947 310.857 22.072 311.519 22.392L310.111 26.072C309.364 25.7733 308.66 25.528 307.999 25.336C307.359 25.144 306.719 25.048 306.079 25.048C305.247 25.048 304.553 25.2507 303.999 25.656C303.444 26.04 303.028 26.6267 302.751 27.416C302.495 28.184 302.367 29.1547 302.367 30.328C302.367 31.48 302.505 32.44 302.783 33.208C303.081 33.9547 303.508 34.52 304.062 34.904C304.617 35.2667 305.289 35.448 306.079 35.448C307.081 35.448 307.967 35.32 308.735 35.064C309.503 34.7867 310.249 34.4133 310.975 33.944V38.008C310.249 38.4773 309.481 38.808 308.671 39C307.881 39.2133 306.879 39.32 305.663 39.32ZM327.188 33.816C327.188 34.9893 326.911 35.992 326.356 36.824C325.801 37.6347 324.969 38.2533 323.86 38.68C322.751 39.1067 321.375 39.32 319.732 39.32C318.516 39.32 317.471 39.2347 316.596 39.064C315.721 38.9147 314.847 38.6587 313.972 38.296V34.36C314.911 34.7867 315.924 35.1387 317.012 35.416C318.1 35.6933 319.06 35.832 319.892 35.832C320.831 35.832 321.492 35.6933 321.876 35.416C322.281 35.1387 322.484 34.776 322.484 34.328C322.484 34.0293 322.399 33.7627 322.228 33.528C322.079 33.2933 321.737 33.0267 321.204 32.728C320.671 32.4293 319.839 32.0453 318.708 31.576C317.62 31.1067 316.724 30.648 316.02 30.2C315.316 29.7307 314.793 29.176 314.452 28.536C314.111 27.8747 313.94 27.0533 313.94 26.072C313.94 24.4507 314.569 23.2347 315.828 22.424C317.087 21.6133 318.761 21.208 320.852 21.208C321.94 21.208 322.975 21.3147 323.956 21.528C324.937 21.7413 325.951 22.0933 326.996 22.584L325.556 26.008C324.98 25.752 324.425 25.528 323.892 25.336C323.359 25.144 322.836 24.9947 322.324 24.888C321.833 24.7813 321.321 24.728 320.788 24.728C320.084 24.728 319.551 24.824 319.188 25.016C318.847 25.208 318.676 25.496 318.676 25.88C318.676 26.1573 318.761 26.4133 318.932 26.648C319.124 26.8613 319.476 27.096 319.988 27.352C320.521 27.608 321.3 27.9493 322.324 28.376C323.327 28.7813 324.191 29.208 324.916 29.656C325.641 30.0827 326.196 30.6267 326.58 31.288C326.985 31.928 327.188 32.7707 327.188 33.816Z" fill="white"/>
<path d="M168.634 19.0874L159.518 39.8708C159.385 40.1943 159.08 40.3965 158.735 40.3965H153.984C153.281 40.3965 152.909 39.7765 153.201 39.17L167.639 7.18604C167.785 6.903 168.011 6.66039 168.422 6.66039H168.886C169.232 6.64691 169.537 6.86256 169.669 7.18604L184.081 39.1565C184.36 39.7765 183.988 40.383 183.298 40.383H178.547C178.202 40.3965 177.897 40.1808 177.764 39.8574L168.634 19.0874Z" fill="white"/>
<path d="M73.5397 28.0235L82.6564 7.22657C82.7891 6.90309 83.0943 6.70092 83.4394 6.70092H88.1901C88.8935 6.70092 89.265 7.32092 88.9731 7.92744L74.5483 39.8979C74.4023 40.1809 74.1767 40.4235 73.7653 40.4235H73.3009C72.9559 40.437 72.6506 40.2214 72.5179 39.8979L58.0931 7.92744C57.8145 7.30744 58.186 6.70092 58.8761 6.70092H63.6268C63.9719 6.68744 64.2771 6.90309 64.4098 7.22657L73.5397 28.0235Z" fill="white"/>
<path d="M94.0291 7.61733C94.0291 7.13211 94.4139 6.70081 94.8253 6.70081H98.7533C99.1779 6.70081 99.5495 7.13211 99.5495 7.61733V39.5069C99.5495 39.9921 99.1647 40.4234 98.7533 40.4234H94.8253C94.4006 40.4234 94.0291 39.9921 94.0291 39.5069V7.61733Z" fill="white"/>
<path d="M105.985 7.61733C105.985 7.10515 106.383 6.70081 106.888 6.70081H120.49C126.196 6.70081 130.854 11.3239 130.854 17.0656C130.854 21.4999 127.961 25.1121 123.821 26.7969L130.336 39.0352C130.668 39.6687 130.336 40.4369 129.527 40.4369H124.537C124.219 40.4504 123.927 40.2887 123.781 40.0056L117.451 27.2282H112.169V39.5069C112.156 40.0056 111.758 40.41 111.267 40.4234H106.888C106.383 40.4234 105.985 40.0191 105.985 39.5069V7.61733ZM119.972 22.066C122.494 22.066 124.683 19.8556 124.683 17.1465C124.683 14.5856 122.494 12.4695 119.972 12.4695H112.222V22.0526H119.972V22.066Z" fill="white"/>
<path d="M142.054 12.483H134.941C134.45 12.483 134.052 12.0652 134.052 11.5665V7.61733C134.052 7.11863 134.437 6.70081 134.928 6.70081C134.928 6.70081 134.928 6.70081 134.941 6.70081H155.271C155.762 6.70081 156.161 7.11863 156.161 7.61733V11.5665C156.161 12.0652 155.776 12.483 155.285 12.483C155.285 12.483 155.285 12.483 155.271 12.483H148.159V39.5069C148.145 40.0056 147.76 40.3965 147.269 40.4234H142.943C142.452 40.3965 142.067 40.0056 142.054 39.5069V12.483Z" fill="white"/>
<path d="M189.575 7.61733C189.562 7.11863 189.96 6.71428 190.451 6.70081H194.697C195.188 6.72776 195.573 7.11863 195.573 7.61733V34.6413H207.344C207.835 34.6547 208.233 35.0591 208.22 35.5578V39.5069C208.233 40.0056 207.835 40.41 207.344 40.4234H190.451C189.96 40.41 189.562 40.0056 189.575 39.5069V7.61733Z" fill="white"/>
<path d="M213.833 7.61733C213.833 7.13211 214.218 6.70081 214.629 6.70081H218.557C218.982 6.70081 219.353 7.13211 219.353 7.61733V39.5069C219.353 39.9921 218.969 40.4234 218.557 40.4234H214.629C214.205 40.4234 213.833 39.9921 213.833 39.5069V7.61733Z" fill="white"/>
<path d="M224.901 35.2478L226.573 32.2826C226.851 31.757 227.502 31.5683 228.019 31.8513C228.072 31.8783 228.112 31.9052 228.152 31.9457C228.391 32.0939 232.146 34.9109 235.185 34.9109C237.614 34.9109 239.432 33.28 239.432 31.2313C239.432 28.7918 237.428 27.1204 233.513 25.5031C229.134 23.6835 224.768 20.8126 224.768 15.1787C224.768 10.9196 227.833 6 235.251 6C240.002 6 243.638 8.49348 244.567 9.20783C245.032 9.49087 245.178 10.313 244.846 10.7848L243.081 13.5074C242.709 14.0735 242.006 14.4644 241.449 14.0735C241.077 13.8309 237.534 11.4452 234.973 11.4452C232.319 11.4452 230.872 13.2648 230.872 14.7878C230.872 17.0387 232.597 18.5617 236.366 20.1387C240.878 21.9987 246.107 24.7752 246.107 30.9483C246.107 35.8678 241.966 40.41 235.397 40.41C229.532 40.41 226.082 37.5931 225.153 36.6765C224.715 36.2587 224.476 36.0161 224.901 35.2478Z" fill="white"/>
</svg>
