<svg width="1358" height="256" viewBox="0 0 1358 256" fill="none" xmlns="http://www.w3.org/2000/svg">
<path d="M1312.07 180.749L1315.69 174.286C1316.29 173.14 1317.7 172.729 1318.82 173.345C1318.94 173.404 1319.02 173.463 1319.11 173.551C1319.63 173.874 1327.76 180.014 1334.34 180.014C1339.6 180.014 1343.54 176.459 1343.54 171.994C1343.54 166.677 1339.2 163.034 1330.72 159.509C1321.24 155.543 1311.78 149.286 1311.78 137.006C1311.78 127.723 1318.42 117 1334.49 117C1344.78 117 1352.65 122.435 1354.67 123.992C1355.67 124.609 1355.99 126.401 1355.27 127.429L1351.45 133.363C1350.64 134.597 1349.12 135.449 1347.91 134.597C1347.11 134.068 1339.43 128.868 1333.88 128.868C1328.13 128.868 1325 132.834 1325 136.154C1325 141.06 1328.74 144.38 1336.9 147.817C1346.67 151.871 1358 157.922 1358 171.377C1358 182.1 1349.03 192 1334.8 192C1322.1 192 1314.62 185.86 1312.61 183.863C1311.66 182.952 1311.15 182.423 1312.07 180.749Z" fill="#F1AC27"/>
<path d="M1279.84 118.1C1283.05 118.1 1286.74 118.898 1290.89 120.429C1294.12 121.605 1296.75 122.801 1298.73 124.025C1299.28 124.366 1299.5 125.062 1299.24 125.656L1295.58 133.946C1295.42 134.297 1295.12 134.561 1294.75 134.668C1294.38 134.776 1293.99 134.715 1293.67 134.501C1287.89 130.641 1283.47 128.887 1280.31 128.887C1274.56 128.887 1270.01 131.838 1266.62 138.13C1263.98 143.174 1262.65 148.894 1262.65 155.321C1262.65 161.471 1263.98 166.819 1266.61 171.405L1266.87 171.846L1266.87 171.848C1270.06 177.186 1274.24 179.708 1279.46 179.708C1284.65 179.708 1289.55 178.281 1294.17 175.402L1294.29 175.337C1294.56 175.201 1294.88 175.168 1295.19 175.248C1295.53 175.338 1295.83 175.567 1296 175.88L1299.75 182.738C1300.08 183.344 1299.88 184.105 1299.29 184.468C1295.51 186.805 1292.34 188.403 1289.81 189.203C1286.72 190.206 1283.3 190.7 1279.56 190.7C1270.42 190.7 1263.23 186.868 1258.11 179.279V179.278C1253.55 172.594 1251.35 164.166 1251.41 154.084C1251.41 144.394 1253.72 136.142 1258.4 129.404L1258.41 129.391C1263.65 122.03 1270.83 118.243 1279.82 118.1H1279.84Z" fill="#F1AC27" stroke="#F1AC27" stroke-width="2.6" stroke-linejoin="round"/>
<path d="M1208.14 118.1C1217.36 118.1 1224.81 121.723 1230.38 128.929L1230.38 128.931C1235.51 135.6 1238.04 143.878 1238.04 153.677C1238.04 164.01 1235.52 172.663 1230.39 179.542L1230.39 179.545C1224.81 186.98 1217.12 190.7 1207.46 190.7C1197.8 190.7 1190.17 186.941 1184.72 179.428C1179.84 172.744 1177.5 164.121 1177.56 153.669C1177.56 143.858 1180.23 135.573 1185.64 128.906C1191.33 121.784 1198.87 118.172 1208.13 118.1H1208.14ZM1207.95 128.546C1201.94 128.546 1197.1 131.22 1193.36 136.75C1190.09 141.737 1188.43 147.671 1188.43 154.606C1188.43 161.259 1190.09 167.061 1193.37 172.057C1196.98 177.447 1201.65 180.046 1207.46 180.046C1213.28 180.046 1218.06 177.469 1221.87 172.126C1225.4 167.13 1227.21 161.373 1227.27 154.813L1227.27 154.172C1227.16 147.575 1225.47 141.81 1222.23 136.835L1222.23 136.832C1218.61 131.24 1213.88 128.546 1207.95 128.546Z" fill="#F1AC27" stroke="#F1AC27" stroke-width="2.6" stroke-linejoin="round"/>
<path d="M1128.15 118.1C1140.04 118.1 1149 120.909 1154.7 126.813C1160.39 132.705 1163.13 141.982 1163.2 154.339C1163.27 165.782 1160.4 174.812 1154.41 181.234C1148.47 187.609 1139.84 190.7 1128.76 190.7C1126.97 190.7 1124.3 190.629 1120.78 190.489C1117.25 190.349 1114.67 190.279 1113 190.279C1112.28 190.279 1111.7 189.697 1111.7 188.979V119.821C1111.7 119.125 1112.25 118.552 1112.94 118.522C1117.77 118.311 1122.83 118.17 1128.13 118.1H1128.15ZM1130.89 127.647C1129.11 127.647 1126.67 127.703 1123.55 127.813V179.889H1131.6C1137.76 179.889 1142.47 177.427 1145.88 172.454C1145.89 172.445 1145.89 172.437 1145.9 172.429C1149.1 167.992 1150.74 162.414 1150.74 155.611C1150.74 145.974 1148.99 138.98 1145.7 134.424C1142.46 129.947 1137.6 127.647 1130.89 127.647Z" fill="#F1AC27" stroke="#F1AC27" stroke-width="2.6" stroke-linejoin="round"/>
<path d="M976.755 176.901L983.555 164.847C984.688 162.71 987.333 161.943 989.438 163.094C989.654 163.203 989.815 163.313 989.977 163.477C990.949 164.08 1006.22 175.532 1018.58 175.532C1028.46 175.532 1035.85 168.902 1035.85 160.573C1035.85 150.655 1027.7 143.861 1011.78 137.286C993.971 129.889 976.216 118.218 976.216 95.3142C976.216 77.9996 988.682 58 1018.85 58C1038.17 58 1052.96 68.1368 1056.74 71.0408C1058.62 72.1915 1059.22 75.5339 1057.87 77.4516L1050.69 88.5199C1049.18 90.8212 1046.32 92.4102 1044.05 90.8212C1042.54 89.8349 1028.13 80.1365 1017.72 80.1365C1006.92 80.1365 1001.04 87.5336 1001.04 93.7252C1001.04 102.876 1008.06 109.067 1023.38 115.478C1041.73 123.04 1063 134.327 1063 159.422C1063 179.422 1046.16 197.887 1019.44 197.887C995.59 197.887 981.558 186.435 977.781 182.71C976 181.011 975.028 180.025 976.755 176.901Z" fill="white"/>
<path d="M931.746 64.5751C931.746 62.6025 933.311 60.8491 934.984 60.8491H950.958C952.685 60.8491 954.196 62.6025 954.196 64.5751V194.216C954.196 196.189 952.631 197.942 950.958 197.942H934.984C933.257 197.942 931.746 196.189 931.746 194.216V64.5751Z" fill="white"/>
<path d="M833.093 64.5751C833.039 62.5477 834.658 60.9039 836.654 60.8491H853.924C855.921 60.9587 857.486 62.5477 857.486 64.5751V174.436H905.356C907.352 174.49 908.972 176.134 908.918 178.162V194.216C908.972 196.243 907.352 197.887 905.356 197.942H836.654C834.658 197.887 833.039 196.243 833.093 194.216V64.5751Z" fill="white"/>
<path d="M747.931 111.205L710.855 195.696C710.315 197.011 709.074 197.833 707.671 197.833H688.35C685.49 197.833 683.979 195.313 685.166 192.847L743.883 62.8225C744.477 61.6718 745.394 60.6855 747.067 60.6855H748.956C750.359 60.6307 751.601 61.5074 752.14 62.8225L810.749 192.792C811.883 195.313 810.372 197.778 807.565 197.778H788.245C786.842 197.833 785.6 196.956 785.061 195.641L747.931 111.205Z" fill="white"/>
<path d="M639.834 84.3554H610.907C608.91 84.3554 607.291 82.6568 607.291 80.6295V64.5751C607.291 62.5477 608.856 60.8491 610.853 60.8491C610.853 60.8491 610.853 60.8491 610.907 60.8491H693.586C695.583 60.8491 697.202 62.5477 697.202 64.5751V80.6295C697.202 82.6568 695.637 84.3554 693.64 84.3554C693.64 84.3554 693.64 84.3554 693.586 84.3554H664.659V194.216C664.605 196.243 663.04 197.832 661.043 197.942H643.45C641.453 197.832 639.888 196.243 639.834 194.216V84.3554Z" fill="white"/>
<path d="M493.148 64.5751C493.148 62.4929 494.767 60.8491 496.818 60.8491H552.135C575.341 60.8491 594.284 79.6432 594.284 102.985C594.284 121.012 582.519 135.697 565.681 142.546L592.179 192.298C593.528 194.874 592.179 197.997 588.887 197.997H568.595C567.3 198.052 566.113 197.394 565.519 196.243L539.776 144.299H518.297V194.216C518.243 196.243 516.624 197.887 514.627 197.942H496.818C494.767 197.942 493.148 196.298 493.148 194.216V64.5751ZM550.03 123.313C560.284 123.313 569.189 114.327 569.189 103.314C569.189 92.9032 560.284 84.3007 550.03 84.3007H518.513V123.259H550.03V123.313Z" fill="white"/>
<path d="M444.524 64.5751C444.524 62.6025 446.089 60.8491 447.762 60.8491H463.737C465.464 60.8491 466.975 62.6025 466.975 64.5751V194.216C466.975 196.189 465.41 197.942 463.737 197.942H447.762C446.036 197.942 444.524 196.189 444.524 194.216V64.5751Z" fill="white"/>
<path d="M361.197 147.533L398.273 62.9865C398.813 61.6715 400.054 60.8496 401.457 60.8496H420.778C423.638 60.8496 425.149 63.3701 423.962 65.8358L365.299 195.805C364.705 196.956 363.788 197.942 362.115 197.942H360.226C358.823 197.997 357.582 197.121 357.042 195.805L298.379 65.8358C297.245 63.3153 298.757 60.8496 301.563 60.8496H320.883C322.287 60.7948 323.528 61.6715 324.067 62.9865L361.197 147.533Z" fill="white"/>
<path d="M12 219.096C29.6342 208.915 49.6377 203.555 70 203.555C90.3623 203.555 110.366 208.915 128 219.096C145.634 208.915 165.638 203.555 186 203.555C206.362 203.555 226.366 208.915 244 219.096" stroke="white" stroke-width="22" stroke-linecap="round" stroke-linejoin="round"/>
<path d="M12 51.541C29.6342 41.3599 49.6377 36 70 36C90.3623 36 110.366 41.3599 128 51.541C145.634 41.3599 165.638 36 186 36C206.362 36 226.366 41.3599 244 51.541" stroke="white" stroke-width="22" stroke-linecap="round" stroke-linejoin="round"/>
<path d="M12 51.541V219.096" stroke="white" stroke-width="22" stroke-linecap="round" stroke-linejoin="round"/>
<path d="M244 51.541V219.096" stroke="white" stroke-width="22" stroke-linecap="round" stroke-linejoin="round"/>
<path d="M63 80L106.667 171.303" stroke="#F1AC27" stroke-width="23" stroke-linecap="round"/>
<path d="M150.333 80L106.667 171.303" stroke="#F1AC27" stroke-width="23" stroke-linecap="round"/>
<path d="M150.333 80L194 171.303" stroke="#F1AC27" stroke-width="23" stroke-linecap="round"/>
</svg>
