<svg width="1522" height="256" viewBox="0 0 1522 256" fill="none" xmlns="http://www.w3.org/2000/svg">
<path d="M1267.25 181.053V90.5H1285.69V197H1269.05L1267.25 181.053ZM1219.06 160.391V158.935C1219.06 153.203 1219.71 148.003 1221 143.334C1222.34 138.619 1224.28 134.575 1226.83 131.2C1229.37 127.826 1232.44 125.214 1236.05 123.365C1239.7 121.516 1243.84 120.592 1248.46 120.592C1252.94 120.592 1256.85 121.493 1260.18 123.296C1263.55 125.099 1266.42 127.664 1268.78 130.992C1271.18 134.32 1273.1 138.272 1274.53 142.849C1275.96 147.379 1277 152.371 1277.65 157.825V161.777C1277 167.093 1275.96 171.97 1274.53 176.407C1273.1 180.845 1271.18 184.728 1268.78 188.056C1266.42 191.338 1263.55 193.88 1260.18 195.683C1256.8 197.485 1252.85 198.387 1248.32 198.387C1243.75 198.387 1239.63 197.439 1235.98 195.544C1232.37 193.649 1229.3 190.991 1226.76 187.57C1224.26 184.15 1222.34 180.128 1221 175.506C1219.71 170.883 1219.06 165.845 1219.06 160.391ZM1237.44 158.935V160.391C1237.44 163.626 1237.71 166.654 1238.27 169.474C1238.82 172.293 1239.72 174.789 1240.97 176.962C1242.22 179.088 1243.81 180.752 1245.76 181.954C1247.74 183.156 1250.15 183.757 1252.97 183.757C1256.57 183.757 1259.53 182.971 1261.84 181.399C1264.2 179.782 1266.03 177.586 1267.32 174.812C1268.61 171.993 1269.45 168.826 1269.82 165.313V154.428C1269.63 151.654 1269.15 149.089 1268.36 146.731C1267.62 144.374 1266.56 142.34 1265.17 140.63C1263.83 138.92 1262.17 137.579 1260.18 136.608C1258.19 135.638 1255.83 135.152 1253.11 135.152C1250.29 135.152 1247.88 135.776 1245.89 137.024C1243.91 138.226 1242.29 139.913 1241.04 142.086C1239.79 144.258 1238.87 146.778 1238.27 149.644C1237.71 152.509 1237.44 155.606 1237.44 158.935ZM1299.01 160.252V158.796C1299.01 153.295 1299.79 148.234 1301.36 143.611C1302.93 138.943 1305.22 134.898 1308.23 131.478C1311.23 128.057 1314.91 125.399 1319.25 123.504C1323.6 121.562 1328.54 120.592 1334.09 120.592C1339.73 120.592 1344.72 121.562 1349.07 123.504C1353.46 125.399 1357.16 128.057 1360.16 131.478C1363.16 134.898 1365.45 138.943 1367.02 143.611C1368.6 148.234 1369.38 153.295 1369.38 158.796V160.252C1369.38 165.706 1368.6 170.768 1367.02 175.437C1365.45 180.059 1363.16 184.104 1360.16 187.57C1357.16 190.991 1353.48 193.649 1349.14 195.544C1344.79 197.439 1339.82 198.387 1334.23 198.387C1328.68 198.387 1323.71 197.439 1319.32 195.544C1314.93 193.649 1311.23 190.991 1308.23 187.57C1305.22 184.104 1302.93 180.059 1301.36 175.437C1299.79 170.768 1299.01 165.706 1299.01 160.252ZM1317.31 158.796V160.252C1317.31 163.534 1317.63 166.608 1318.28 169.474C1318.93 172.34 1319.92 174.859 1321.26 177.031C1322.6 179.204 1324.34 180.914 1326.46 182.162C1328.64 183.364 1331.22 183.965 1334.23 183.965C1337.19 183.965 1339.73 183.364 1341.86 182.162C1343.98 180.914 1345.72 179.204 1347.06 177.031C1348.44 174.859 1349.46 172.34 1350.11 169.474C1350.75 166.608 1351.08 163.534 1351.08 160.252V158.796C1351.08 155.56 1350.75 152.533 1350.11 149.713C1349.46 146.847 1348.44 144.328 1347.06 142.155C1345.72 139.937 1343.96 138.203 1341.79 136.955C1339.66 135.661 1337.09 135.014 1334.09 135.014C1331.13 135.014 1328.59 135.661 1326.46 136.955C1324.34 138.203 1322.6 139.937 1321.26 142.155C1319.92 144.328 1318.93 146.847 1318.28 149.713C1317.63 152.533 1317.31 155.56 1317.31 158.796ZM1413.48 183.965C1416.07 183.965 1418.38 183.456 1420.41 182.439C1422.45 181.423 1424.06 179.99 1425.27 178.141C1426.51 176.292 1427.18 174.142 1427.28 171.692H1444.54C1444.45 176.777 1443.02 181.33 1440.24 185.352C1437.47 189.373 1433.77 192.562 1429.15 194.92C1424.57 197.231 1419.44 198.387 1413.76 198.387C1407.98 198.387 1402.94 197.416 1398.64 195.475C1394.34 193.533 1390.76 190.829 1387.89 187.362C1385.07 183.896 1382.95 179.874 1381.52 175.298C1380.13 170.722 1379.44 165.822 1379.44 160.599V158.38C1379.44 153.157 1380.13 148.257 1381.52 143.681C1382.95 139.104 1385.07 135.083 1387.89 131.616C1390.76 128.149 1394.34 125.445 1398.64 123.504C1402.94 121.562 1407.96 120.592 1413.69 120.592C1419.74 120.592 1425.06 121.771 1429.63 124.128C1434.26 126.485 1437.86 129.813 1440.45 134.112C1443.09 138.411 1444.45 143.473 1444.54 149.297H1427.28C1427.18 146.616 1426.58 144.212 1425.47 142.086C1424.37 139.96 1422.79 138.249 1420.76 136.955C1418.73 135.661 1416.25 135.014 1413.34 135.014C1410.24 135.014 1407.66 135.661 1405.58 136.955C1403.54 138.249 1401.95 140.029 1400.79 142.294C1399.68 144.513 1398.9 147.009 1398.43 149.782C1398.02 152.509 1397.81 155.375 1397.81 158.38V160.599C1397.81 163.649 1398.02 166.562 1398.43 169.335C1398.9 172.108 1399.68 174.604 1400.79 176.823C1401.95 178.996 1403.54 180.729 1405.58 182.023C1407.66 183.318 1410.29 183.965 1413.48 183.965ZM1498 176.477C1498 174.905 1497.58 173.495 1496.75 172.247C1495.92 170.999 1494.35 169.867 1492.04 168.85C1489.77 167.786 1486.44 166.793 1482.05 165.868C1478.17 165.036 1474.59 163.996 1471.31 162.748C1468.02 161.5 1465.2 159.998 1462.85 158.241C1460.49 156.438 1458.64 154.335 1457.3 151.932C1456.01 149.482 1455.36 146.662 1455.36 143.473C1455.36 140.376 1456.03 137.464 1457.37 134.736C1458.71 131.963 1460.65 129.536 1463.19 127.456C1465.74 125.33 1468.83 123.666 1472.48 122.464C1476.14 121.216 1480.25 120.592 1484.83 120.592C1491.21 120.592 1496.68 121.632 1501.26 123.712C1505.88 125.792 1509.42 128.658 1511.87 132.31C1514.32 135.915 1515.54 139.983 1515.54 144.513H1497.24C1497.24 142.525 1496.78 140.722 1495.85 139.104C1494.97 137.487 1493.61 136.192 1491.76 135.222C1489.91 134.205 1487.58 133.696 1484.76 133.696C1482.21 133.696 1480.07 134.112 1478.31 134.944C1476.6 135.776 1475.3 136.863 1474.43 138.203C1473.55 139.544 1473.11 141.023 1473.11 142.641C1473.11 143.842 1473.34 144.929 1473.8 145.899C1474.31 146.824 1475.12 147.679 1476.23 148.465C1477.34 149.251 1478.84 149.967 1480.74 150.614C1482.68 151.261 1485.06 151.885 1487.88 152.486C1493.47 153.596 1498.35 155.075 1502.51 156.924C1506.71 158.727 1510 161.13 1512.35 164.135C1514.71 167.139 1515.89 170.976 1515.89 175.645C1515.89 178.973 1515.17 182.023 1513.74 184.797C1512.31 187.524 1510.23 189.905 1507.5 191.938C1504.77 193.972 1501.51 195.567 1497.72 196.723C1493.93 197.832 1489.66 198.387 1484.9 198.387C1478.01 198.387 1472.18 197.162 1467.42 194.712C1462.66 192.216 1459.06 189.073 1456.61 185.282C1454.16 181.446 1452.93 177.47 1452.93 173.356H1470.47C1470.61 176.269 1471.4 178.603 1472.83 180.359C1474.26 182.116 1476.07 183.387 1478.24 184.173C1480.46 184.912 1482.79 185.282 1485.24 185.282C1488.02 185.282 1490.35 184.912 1492.25 184.173C1494.14 183.387 1495.57 182.347 1496.54 181.053C1497.51 179.712 1498 178.187 1498 176.477Z" fill="white"/>
<path d="M812.014 108.805L769.657 205.366C769.04 206.869 767.622 207.808 766.019 207.808H743.947C740.679 207.808 738.953 204.928 740.31 202.11L807.39 53.5107C808.068 52.1956 809.116 51.0685 811.027 51.0685H813.185C814.788 51.0058 816.206 52.0078 816.823 53.5107L883.779 202.047C885.074 204.928 883.348 207.746 880.142 207.746H858.07C856.467 207.808 855.048 206.806 854.432 205.303L812.014 108.805Z" fill="white"/>
<path d="M370.199 150.322L412.555 53.6986C413.172 52.1958 414.59 51.2564 416.193 51.2564H438.265C441.533 51.2564 443.259 54.137 441.903 56.9549L374.884 205.491C374.206 206.806 373.158 207.934 371.247 207.934H369.089C367.486 207.996 366.068 206.994 365.451 205.491L298.433 56.9549C297.138 54.0744 298.864 51.2564 302.07 51.2564H324.143C325.746 51.1938 327.164 52.1958 327.78 53.6986L370.199 150.322Z" fill="white"/>
<path d="M465.394 55.5146C465.394 53.2602 467.182 51.2563 469.093 51.2563H487.343C489.316 51.2563 491.042 53.2602 491.042 55.5146V203.675C491.042 205.93 489.254 207.934 487.343 207.934H469.093C467.12 207.934 465.394 205.93 465.394 203.675V55.5146Z" fill="white"/>
<path d="M520.943 55.5146C520.943 53.135 522.792 51.2563 525.135 51.2563H588.331C614.843 51.2563 636.483 72.7353 636.483 99.4117C636.483 120.014 623.043 136.796 603.806 144.624L634.079 201.484C635.62 204.427 634.079 207.996 630.318 207.996H607.136C605.656 208.059 604.3 207.307 603.621 205.992L574.212 146.628H549.674V203.675C549.612 205.992 547.763 207.871 545.481 207.934H525.135C522.792 207.934 520.943 206.055 520.943 203.675V55.5146ZM585.927 122.644C597.641 122.644 607.814 112.374 607.814 99.7875C607.814 87.8895 597.641 78.058 585.927 78.058H549.92V122.581H585.927V122.644Z" fill="white"/>
<path d="M688.521 78.1207H655.474C653.193 78.1207 651.343 76.1794 651.343 73.8624V55.5146C651.343 53.1976 653.131 51.2563 655.412 51.2563C655.412 51.2563 655.412 51.2563 655.474 51.2563H749.929C752.21 51.2563 754.06 53.1976 754.06 55.5146V73.8624C754.06 76.1794 752.272 78.1207 749.99 78.1207C749.99 78.1207 749.99 78.1207 749.929 78.1207H716.882V203.675C716.82 205.992 715.032 207.808 712.751 207.934H692.652C690.37 207.808 688.583 205.992 688.521 203.675V78.1207Z" fill="white"/>
<path d="M909.305 55.5146C909.243 53.1976 911.093 51.319 913.374 51.2563H933.104C935.385 51.3816 937.173 53.1976 937.173 55.5146V181.069H991.86C994.142 181.132 995.991 183.01 995.929 185.327V203.675C995.991 205.992 994.142 207.871 991.86 207.934H913.374C911.093 207.871 909.243 205.992 909.305 203.675V55.5146Z" fill="white"/>
<path d="M1022.01 55.5146C1022.01 53.2602 1023.8 51.2563 1025.71 51.2563H1043.96C1045.93 51.2563 1047.66 53.2602 1047.66 55.5146V203.675C1047.66 205.93 1045.87 207.934 1043.96 207.934H1025.71C1023.74 207.934 1022.01 205.93 1022.01 203.675V55.5146Z" fill="white"/>
<path d="M1073.43 183.887L1081.2 170.111C1082.49 167.668 1085.51 166.792 1087.92 168.107C1088.16 168.232 1088.35 168.357 1088.53 168.545C1089.64 169.234 1107.09 182.322 1121.21 182.322C1132.49 182.322 1140.94 174.744 1140.94 165.226C1140.94 153.892 1131.63 146.127 1113.44 138.612C1093.1 130.158 1072.81 116.82 1072.81 90.6448C1072.81 70.8566 1087.06 48 1121.52 48C1143.59 48 1160.49 59.5848 1164.8 62.9037C1166.96 64.2188 1167.64 68.0387 1166.1 70.2304L1157.9 82.8798C1156.17 85.5099 1152.9 87.3259 1150.31 85.5099C1148.59 84.3827 1132.12 73.2988 1120.23 73.2988C1107.89 73.2988 1101.17 81.7526 1101.17 88.8288C1101.17 99.2864 1109.19 106.363 1126.7 113.689C1147.66 122.331 1171.95 135.231 1171.95 163.911C1171.95 186.768 1152.72 207.871 1122.2 207.871C1094.95 207.871 1078.92 194.783 1074.6 190.525C1072.57 188.584 1071.46 187.456 1073.43 183.887Z" fill="white"/>
<path d="M129.126 33.6729C147.993 24.0147 168.854 19.3442 189.866 20.0741C210.878 20.8041 231.393 26.9119 249.6 37.858C251.324 38.8945 252.792 40.3353 253.887 42.0659C254.983 43.7966 255.675 45.7695 255.91 47.8278L256 49.4006V222.671C256 225.011 255.408 227.309 254.285 229.336C253.162 231.362 251.546 233.044 249.6 234.214C247.654 235.384 245.447 236 243.2 236C240.953 236 238.746 235.384 236.8 234.214C221.233 224.855 203.575 219.928 185.6 219.928C167.625 219.928 149.967 224.855 134.4 234.214C132.454 235.384 130.247 236 128 236C125.753 236 123.546 235.384 121.6 234.214C106.607 225.199 89.6632 220.289 72.353 219.944C55.0427 219.599 37.9311 223.83 22.6176 232.241L18.432 234.641L17.1136 235.227L16.4864 235.44L15.0784 235.787L14.2976 235.92L12.8 236H12.2624L10.8544 235.84L9.8688 235.653L8.4864 235.227L6.8736 234.481L5.6576 233.734L4.5184 232.841L3.7504 232.095L2.816 231.002L1.9968 229.816L1.7152 229.336L1.3056 228.536L0.742401 227.163L0.537601 226.51L0.2048 225.044L0.0768005 224.231L0.0256012 223.578L0 222.671V49.4006C5.7078e-05 47.061 0.591525 44.7626 1.71496 42.7365C2.83839 40.7104 4.4542 39.0278 6.4 37.858C24.6067 26.9119 45.1223 20.8041 66.1341 20.0741C87.1458 19.3442 108.007 24.0147 126.874 33.6729L128 34.2593L129.126 33.6729Z" fill="white"/>
<path d="M46 73L99 184" stroke="black" stroke-width="30" stroke-linecap="round"/>
<path d="M154 73L99 184" stroke="black" stroke-width="30" stroke-linecap="round"/>
<path d="M154 72.9999L209 184" stroke="black" stroke-width="30" stroke-linecap="round"/>
</svg>
