<svg width="1358" height="256" viewBox="0 0 1358 256" fill="none" xmlns="http://www.w3.org/2000/svg">
<path d="M1333.74 116.625C1344.14 116.625 1352.08 122.101 1354.14 123.688C1354.74 124.073 1355.11 124.778 1355.24 125.491C1355.36 126.212 1355.26 127.017 1354.84 127.631L1354.84 127.632L1351.01 133.566L1351.01 133.568C1350.58 134.237 1349.94 134.814 1349.22 135.108C1348.5 135.407 1347.68 135.419 1346.95 134.903V134.902C1346.52 134.62 1344.43 133.212 1341.76 131.869C1339.05 130.507 1335.82 129.243 1333.14 129.243C1327.57 129.243 1324.63 133.065 1324.63 136.154C1324.63 138.493 1325.51 140.455 1327.4 142.266C1329.31 144.09 1332.23 145.758 1336.3 147.471H1336.3C1341.19 149.5 1346.52 152.047 1350.62 155.795C1354.74 159.555 1357.63 164.527 1357.63 171.377C1357.63 182.325 1348.47 192.375 1334.06 192.375C1321.22 192.375 1313.66 186.173 1311.6 184.129V184.128C1311.15 183.694 1310.7 183.265 1310.53 182.697C1310.36 182.098 1310.51 181.435 1310.99 180.568L1310.99 180.565L1314.61 174.11C1315.31 172.778 1316.95 172.3 1318.25 173.017H1318.25C1318.38 173.082 1318.49 173.155 1318.6 173.259C1319.01 173.531 1321.07 175.058 1323.88 176.573C1326.79 178.143 1330.4 179.639 1333.6 179.639C1338.69 179.639 1342.42 176.209 1342.42 171.994C1342.42 169.456 1341.39 167.31 1339.31 165.353C1337.21 163.383 1334.06 161.612 1329.83 159.855L1329.83 159.854C1320.32 155.881 1310.66 149.535 1310.66 137.006C1310.66 132.279 1312.35 127.181 1316.09 123.263C1319.84 119.338 1325.62 116.625 1333.74 116.625Z" fill="#E18126" stroke="#E18126" stroke-width="0.75"/>
<path d="M1279.09 117.725C1282.36 117.725 1286.09 118.537 1290.27 120.077L1291.46 120.521C1294.17 121.559 1296.42 122.618 1298.18 123.706C1298.89 124.145 1299.17 125.042 1298.83 125.807L1295.17 134.097C1294.97 134.55 1294.58 134.891 1294.11 135.029C1293.63 135.167 1293.12 135.088 1292.71 134.813C1286.94 130.961 1282.6 129.262 1279.56 129.262C1273.98 129.262 1269.54 132.11 1266.2 138.309C1263.59 143.292 1262.27 148.949 1262.27 155.321C1262.27 161.415 1263.6 166.697 1266.19 171.218L1266.45 171.654L1266.45 171.656C1269.58 176.9 1273.64 179.333 1278.71 179.333C1283.83 179.333 1288.66 177.927 1293.22 175.083L1293.37 175C1293.73 174.825 1294.14 174.783 1294.53 174.885C1294.98 175.002 1295.36 175.297 1295.58 175.701L1299.33 182.557C1299.76 183.339 1299.5 184.318 1298.74 184.787C1294.95 187.132 1291.74 188.753 1289.17 189.565L1289.17 189.564C1286.04 190.579 1282.58 191.075 1278.81 191.075C1269.55 191.075 1262.24 187.18 1257.05 179.489V179.488C1252.43 172.726 1250.22 164.218 1250.29 154.083C1250.29 144.332 1252.61 136.001 1257.34 129.189L1257.36 129.173C1262.67 121.716 1269.95 117.87 1279.06 117.725H1279.09Z" fill="#E18126" stroke="#E18126" stroke-width="3.35" stroke-linejoin="round"/>
<path d="M1207.39 117.725C1216.43 117.725 1223.81 121.174 1229.39 128.027L1229.93 128.701L1229.93 128.703C1235.12 135.448 1237.67 143.811 1237.67 153.677C1237.67 164.072 1235.13 172.81 1229.94 179.767L1229.94 179.771C1224.29 187.304 1216.49 191.075 1206.71 191.075C1196.94 191.075 1189.19 187.264 1183.67 179.649V179.65C1178.73 172.884 1176.37 164.175 1176.44 153.667C1176.44 143.785 1179.13 135.413 1184.6 128.669C1190.36 121.459 1198.01 117.798 1207.38 117.725H1207.39ZM1207.2 128.921C1201.33 128.921 1196.61 131.516 1192.94 136.942L1192.64 137.406C1189.6 142.229 1188.06 147.941 1188.06 154.606C1188.06 161.196 1189.7 166.927 1192.94 171.858C1196.49 177.149 1201.05 179.671 1206.71 179.671C1212.4 179.671 1217.07 177.164 1220.82 171.909C1224.3 166.979 1226.08 161.3 1226.15 154.813L1226.14 154.178C1226.04 147.645 1224.37 141.95 1221.17 137.041L1221.16 137.035C1217.61 131.537 1212.99 128.921 1207.2 128.921Z" fill="#E18126" stroke="#E18126" stroke-width="3.35" stroke-linejoin="round"/>
<path d="M1127.4 117.725C1139.34 117.725 1148.42 120.545 1154.22 126.552C1160.01 132.545 1162.75 141.938 1162.82 154.337L1162.82 155.409C1162.71 166.41 1159.82 175.18 1153.94 181.49C1147.9 187.963 1139.16 191.075 1128.01 191.075C1126.21 191.075 1123.54 191.003 1120.01 190.863C1116.49 190.723 1113.91 190.654 1112.25 190.654C1111.33 190.654 1110.58 189.904 1110.58 188.979V119.821C1110.58 118.924 1111.28 118.187 1112.18 118.148C1117.01 117.937 1122.08 117.795 1127.38 117.725H1127.4ZM1130.14 128.022C1128.44 128.022 1126.12 128.074 1123.18 128.175V179.514H1130.86C1136.89 179.514 1141.48 177.111 1144.82 172.242L1144.85 172.21C1147.99 167.85 1149.61 162.352 1149.61 155.611C1149.61 146.008 1147.87 139.108 1144.64 134.644C1141.49 130.281 1136.76 128.022 1130.14 128.022Z" fill="#E18126" stroke="#E18126" stroke-width="3.35" stroke-linejoin="round"/>
<path d="M1018.85 57.25C1038.38 57.25 1053.31 67.4635 1057.17 70.4287C1058.33 71.156 1059.02 72.4869 1059.26 73.8281C1059.5 75.182 1059.3 76.7002 1058.5 77.8584L1058.5 77.8594L1051.32 88.9277L1051.32 88.9316C1050.5 90.1857 1049.29 91.2699 1047.94 91.8232C1046.58 92.3819 1045.03 92.4056 1043.64 91.4482V91.4492C1042.89 90.9548 1038.94 88.3054 1033.89 85.7793C1028.81 83.2388 1022.74 80.8868 1017.72 80.8867C1007.29 80.8867 1001.79 87.9983 1001.79 93.7256C1001.79 98.0712 1003.44 101.717 1006.98 105.086C1010.55 108.483 1016.04 111.591 1023.67 114.786H1023.67C1032.86 118.572 1042.87 123.324 1050.58 130.319C1058.31 137.339 1063.75 146.628 1063.75 159.423C1063.75 179.878 1046.53 198.638 1019.45 198.638C995.356 198.638 981.149 187.079 977.265 183.252C976.415 182.442 975.552 181.63 975.235 180.551C974.9 179.411 975.205 178.158 976.101 176.538L976.104 176.533L982.904 164.479C984.237 161.987 987.321 161.096 989.779 162.425H989.779C990.023 162.548 990.234 162.688 990.444 162.886C991.212 163.393 995.084 166.241 1000.36 169.069C1005.83 171.996 1012.6 174.781 1018.58 174.781C1028.14 174.781 1035.1 168.397 1035.1 160.573C1035.1 155.857 1033.18 151.869 1029.28 148.225C1025.35 144.557 1019.43 141.256 1011.5 137.979L1011.49 137.979C993.65 130.567 975.468 118.719 975.468 95.3145C975.468 86.4846 978.645 76.963 985.681 69.6445C992.728 62.3142 1003.59 57.2501 1018.85 57.25Z" fill="black" stroke="black" stroke-width="1.5"/>
<path d="M950.961 60.0991C953.199 60.0993 954.948 62.2925 954.948 64.5747V194.216C954.948 195.398 954.482 196.502 953.771 197.313C953.064 198.12 952.062 198.692 950.961 198.692H934.986C932.748 198.692 930.998 196.499 930.998 194.216V64.5747C930.998 63.3929 931.465 62.2889 932.176 61.478C932.883 60.6714 933.885 60.0991 934.986 60.0991H950.961Z" fill="black" stroke="black" stroke-width="1.5"/>
<path d="M853.947 60.0991L853.967 60.1001C856.349 60.2308 858.238 62.1364 858.238 64.5747V173.686H905.378C907.701 173.75 909.612 175.606 909.669 177.953V194.424C909.612 196.771 907.701 198.628 905.378 198.692H836.636C834.245 198.626 832.291 196.661 832.345 194.216H832.344V64.5747H832.345C832.291 62.1301 834.245 60.1647 836.636 60.0991H853.947Z" fill="black" stroke="black" stroke-width="1.5"/>
<path d="M748.958 59.9351V59.937C750.686 59.8821 752.176 60.96 752.825 62.5142L811.435 192.484V192.485C812.093 193.948 812.007 195.463 811.271 196.63C810.533 197.802 809.201 198.529 807.567 198.529H788.247V198.527C786.515 198.582 785.022 197.5 784.376 195.942V195.943L747.933 113.07L711.544 195.998L711.543 195.997C710.883 197.585 709.373 198.583 707.673 198.583H688.352C686.692 198.583 685.344 197.843 684.606 196.663C683.87 195.485 683.798 193.964 684.492 192.522L743.202 62.5142L743.21 62.4956L743.219 62.479C743.545 61.847 743.985 61.2078 744.618 60.7261C745.264 60.2344 746.072 59.9351 747.069 59.9351H748.958Z" fill="black" stroke="black" stroke-width="1.5"/>
<path d="M693.588 60.0991C696.024 60.0993 697.953 62.1588 697.953 64.5747V80.6294C697.953 83.0305 696.092 85.105 693.642 85.105H665.411V194.226L665.411 194.236C665.346 196.655 663.471 198.56 661.086 198.691L661.066 198.692H643.431L643.411 198.691C641.026 198.56 639.151 196.655 639.086 194.236V85.105H610.91C608.474 85.105 606.543 83.0456 606.543 80.6294V64.5747C606.544 62.1738 608.405 60.0993 610.855 60.0991H693.588Z" fill="black" stroke="black" stroke-width="1.5"/>
<path d="M552.137 60.0991C575.756 60.0993 595.036 79.2271 595.036 102.985C595.036 121.096 583.39 135.848 566.732 142.921L592.844 191.946L592.845 191.95C593.624 193.437 593.644 195.123 592.939 196.462C592.222 197.825 590.798 198.747 588.889 198.747H568.597V198.746C567.036 198.8 565.583 198 564.854 196.587L564.849 196.577L539.313 145.049H519.05V194.226L519.049 194.236C518.984 196.652 517.055 198.626 514.65 198.692H496.82C494.344 198.692 492.4 196.702 492.4 194.216V64.5747C492.4 62.0893 494.345 60.0991 496.82 60.0991H552.137ZM519.265 122.508H550.782V122.544C560.283 122.119 568.441 113.665 568.441 103.314C568.441 93.3288 559.883 85.0503 550.032 85.0503H519.265V122.508Z" fill="black" stroke="black" stroke-width="1.5"/>
<path d="M463.739 60.0991C465.977 60.0993 467.726 62.2925 467.727 64.5747V194.216C467.726 195.398 467.261 196.502 466.55 197.313C465.843 198.12 464.84 198.692 463.739 198.692H447.765C445.526 198.692 443.777 196.499 443.776 194.216V64.5747C443.776 63.3929 444.243 62.2889 444.954 61.478C445.661 60.6714 446.663 60.0991 447.765 60.0991H463.739Z" fill="black" stroke="black" stroke-width="1.5"/>
<path d="M320.886 60.0991V60.1011C322.623 60.0462 324.121 61.1349 324.764 62.7017H324.763L361.198 145.667L397.581 62.7017C398.237 61.1038 399.753 60.0993 401.459 60.0991H420.78C422.441 60.0992 423.787 60.8401 424.525 62.02C425.262 63.1973 425.334 64.7198 424.64 66.1616L365.984 196.114L365.977 196.132L365.968 196.149C365.642 196.781 365.201 197.42 364.568 197.902C363.923 198.394 363.115 198.693 362.117 198.693H360.228V198.691C358.49 198.746 356.993 197.657 356.35 196.09V196.089L297.697 66.144L297.696 66.1431C297.039 64.6805 297.126 63.1652 297.861 61.9976C298.6 60.8262 299.931 60.0992 301.564 60.0991H320.886Z" fill="black" stroke="black" stroke-width="1.5"/>
<path d="M12.002 219.096C29.6362 208.915 49.6397 203.555 70.002 203.555C90.3642 203.555 110.368 208.915 128.002 219.096C145.636 208.915 165.64 203.555 186.002 203.555C206.364 203.555 226.368 208.915 244.002 219.096" stroke="black" stroke-width="24" stroke-linecap="round" stroke-linejoin="round"/>
<path d="M12.002 51.541C29.6362 41.3599 49.6397 36 70.002 36C90.3642 36 110.368 41.3599 128.002 51.541C145.636 41.3599 165.64 36 186.002 36C206.364 36 226.368 41.3599 244.002 51.541" stroke="black" stroke-width="24" stroke-linecap="round" stroke-linejoin="round"/>
<path d="M12.002 51.541V219.096" stroke="black" stroke-width="24" stroke-linecap="round" stroke-linejoin="round"/>
<path d="M244.002 51.541V219.096" stroke="black" stroke-width="24" stroke-linecap="round" stroke-linejoin="round"/>
<path d="M63.002 80L106.669 171.303" stroke="#E18126" stroke-width="25" stroke-linecap="round"/>
<path d="M150.335 80L106.669 171.303" stroke="#E18126" stroke-width="25" stroke-linecap="round"/>
<path d="M150.335 80L194.002 171.303" stroke="#E18126" stroke-width="25" stroke-linecap="round"/>
</svg>
