<svg width="1522" height="256" viewBox="0 0 1522 256" fill="none" xmlns="http://www.w3.org/2000/svg">
<path d="M1268.36 181.469V90.5H1285.14V197H1269.95L1268.36 181.469ZM1219.55 160.321V158.865C1219.55 153.18 1220.22 148.003 1221.56 143.334C1222.9 138.619 1224.84 134.575 1227.38 131.2C1229.92 127.78 1233.02 125.168 1236.67 123.365C1240.32 121.516 1244.44 120.592 1249.01 120.592C1253.54 120.592 1257.52 121.47 1260.94 123.227C1264.36 124.983 1267.27 127.502 1269.68 130.784C1272.08 134.02 1274 137.903 1275.43 142.433C1276.86 146.916 1277.88 151.909 1278.48 157.409V162.055C1277.88 167.417 1276.86 172.316 1275.43 176.754C1274 181.191 1272.08 185.028 1269.68 188.264C1267.27 191.499 1264.34 193.995 1260.87 195.752C1257.45 197.508 1253.45 198.387 1248.88 198.387C1244.35 198.387 1240.26 197.439 1236.6 195.544C1233 193.649 1229.92 190.991 1227.38 187.57C1224.84 184.15 1222.9 180.128 1221.56 175.506C1220.22 170.837 1219.55 165.776 1219.55 160.321ZM1236.26 158.865V160.321C1236.26 163.742 1236.56 166.931 1237.16 169.89C1237.81 172.848 1238.8 175.46 1240.14 177.725C1241.48 179.943 1243.21 181.7 1245.34 182.994C1247.51 184.242 1250.1 184.866 1253.11 184.866C1256.9 184.866 1260.02 184.034 1262.47 182.37C1264.92 180.706 1266.83 178.464 1268.22 175.645C1269.65 172.779 1270.62 169.589 1271.13 166.076V153.526C1270.86 150.799 1270.28 148.257 1269.4 145.899C1268.57 143.542 1267.43 141.485 1266 139.729C1264.57 137.926 1262.79 136.539 1260.66 135.568C1258.58 134.551 1256.11 134.043 1253.24 134.043C1250.19 134.043 1247.6 134.69 1245.48 135.984C1243.35 137.279 1241.6 139.058 1240.21 141.323C1238.87 143.588 1237.87 146.223 1237.23 149.228C1236.58 152.232 1236.26 155.445 1236.26 158.865ZM1299.42 160.321V158.727C1299.42 153.318 1300.21 148.303 1301.78 143.681C1303.35 139.012 1305.62 134.967 1308.57 131.547C1311.58 128.08 1315.23 125.399 1319.53 123.504C1323.87 121.562 1328.77 120.592 1334.23 120.592C1339.73 120.592 1344.63 121.562 1348.93 123.504C1353.27 125.399 1356.95 128.08 1359.95 131.547C1362.96 134.967 1365.24 139.012 1366.82 143.681C1368.39 148.303 1369.17 153.318 1369.17 158.727V160.321C1369.17 165.729 1368.39 170.745 1366.82 175.367C1365.24 179.99 1362.96 184.034 1359.95 187.501C1356.95 190.922 1353.3 193.603 1349 195.544C1344.7 197.439 1339.82 198.387 1334.37 198.387C1328.87 198.387 1323.94 197.439 1319.6 195.544C1315.3 193.603 1311.65 190.922 1308.64 187.501C1305.64 184.034 1303.35 179.99 1301.78 175.367C1300.21 170.745 1299.42 165.729 1299.42 160.321ZM1316.13 158.727V160.321C1316.13 163.696 1316.48 166.885 1317.17 169.89C1317.87 172.894 1318.95 175.529 1320.43 177.794C1321.91 180.059 1323.81 181.839 1326.12 183.133C1328.43 184.427 1331.18 185.074 1334.37 185.074C1337.46 185.074 1340.15 184.427 1342.41 183.133C1344.72 181.839 1346.62 180.059 1348.1 177.794C1349.57 175.529 1350.66 172.894 1351.35 169.89C1352.09 166.885 1352.46 163.696 1352.46 160.321V158.727C1352.46 155.398 1352.09 152.255 1351.35 149.297C1350.66 146.292 1349.55 143.634 1348.03 141.323C1346.55 139.012 1344.65 137.209 1342.34 135.915C1340.08 134.575 1337.37 133.904 1334.23 133.904C1331.09 133.904 1328.36 134.575 1326.05 135.915C1323.78 137.209 1321.91 139.012 1320.43 141.323C1318.95 143.634 1317.87 146.292 1317.17 149.297C1316.48 152.255 1316.13 155.398 1316.13 158.727ZM1413.83 185.074C1416.55 185.074 1419 184.543 1421.18 183.479C1423.39 182.37 1425.17 180.845 1426.51 178.903C1427.9 176.962 1428.66 174.72 1428.8 172.178H1444.54C1444.45 177.031 1443.02 181.446 1440.24 185.421C1437.47 189.396 1433.79 192.562 1429.22 194.92C1424.64 197.231 1419.58 198.387 1414.03 198.387C1408.3 198.387 1403.31 197.416 1399.06 195.475C1394.81 193.487 1391.27 190.76 1388.45 187.293C1385.63 183.826 1383.5 179.828 1382.07 175.298C1380.68 170.768 1379.99 165.914 1379.99 160.737V158.311C1379.99 153.133 1380.68 148.28 1382.07 143.75C1383.5 139.174 1385.63 135.152 1388.45 131.686C1391.27 128.219 1394.81 125.515 1399.06 123.573C1403.31 121.586 1408.28 120.592 1413.96 120.592C1419.97 120.592 1425.24 121.794 1429.77 124.197C1434.3 126.555 1437.86 129.86 1440.45 134.112C1443.09 138.319 1444.45 143.218 1444.54 148.812H1428.8C1428.66 146.038 1427.97 143.542 1426.72 141.323C1425.52 139.058 1423.81 137.256 1421.59 135.915C1419.42 134.575 1416.81 133.904 1413.76 133.904C1410.38 133.904 1407.59 134.598 1405.37 135.984C1403.15 137.325 1401.42 139.174 1400.17 141.531C1398.92 143.842 1398.02 146.454 1397.46 149.366C1396.95 152.232 1396.7 155.214 1396.7 158.311V160.737C1396.7 163.834 1396.95 166.839 1397.46 169.751C1397.97 172.663 1398.85 175.275 1400.1 177.586C1401.39 179.851 1403.15 181.677 1405.37 183.063C1407.59 184.404 1410.41 185.074 1413.83 185.074ZM1499.46 176.685C1499.46 175.021 1499.04 173.518 1498.21 172.178C1497.38 170.791 1495.78 169.543 1493.42 168.434C1491.11 167.324 1487.69 166.307 1483.16 165.383C1479.19 164.505 1475.54 163.465 1472.21 162.263C1468.93 161.015 1466.11 159.512 1463.75 157.756C1461.39 155.999 1459.56 153.919 1458.27 151.516C1456.98 149.112 1456.33 146.339 1456.33 143.195C1456.33 140.145 1457 137.256 1458.34 134.528C1459.68 131.801 1461.6 129.397 1464.09 127.317C1466.59 125.237 1469.62 123.596 1473.18 122.395C1476.78 121.193 1480.8 120.592 1485.24 120.592C1491.53 120.592 1496.91 121.655 1501.4 123.781C1505.93 125.861 1509.39 128.704 1511.8 132.31C1514.2 135.869 1515.4 139.89 1515.4 144.374H1498.69C1498.69 142.386 1498.18 140.537 1497.17 138.827C1496.2 137.071 1494.72 135.661 1492.73 134.598C1490.74 133.488 1488.25 132.934 1485.24 132.934C1482.38 132.934 1480 133.396 1478.1 134.32C1476.25 135.199 1474.86 136.354 1473.94 137.787C1473.06 139.22 1472.62 140.792 1472.62 142.502C1472.62 143.75 1472.85 144.882 1473.32 145.899C1473.82 146.87 1474.66 147.771 1475.81 148.604C1476.97 149.389 1478.54 150.129 1480.53 150.822C1482.56 151.516 1485.1 152.186 1488.15 152.833C1493.89 154.035 1498.81 155.583 1502.92 157.479C1507.08 159.327 1510.27 161.731 1512.49 164.689C1514.71 167.602 1515.82 171.299 1515.82 175.783C1515.82 179.111 1515.1 182.162 1513.67 184.936C1512.28 187.663 1510.25 190.043 1507.57 192.077C1504.89 194.065 1501.67 195.613 1497.93 196.723C1494.23 197.832 1490.07 198.387 1485.45 198.387C1478.66 198.387 1472.9 197.185 1468.19 194.781C1463.47 192.331 1459.89 189.211 1457.44 185.421C1455.03 181.584 1453.83 177.609 1453.83 173.495H1469.99C1470.17 176.592 1471.03 179.065 1472.55 180.914C1474.13 182.717 1476.07 184.034 1478.38 184.866C1480.74 185.652 1483.16 186.045 1485.66 186.045C1488.66 186.045 1491.18 185.652 1493.22 184.866C1495.25 184.034 1496.8 182.925 1497.86 181.538C1498.92 180.105 1499.46 178.487 1499.46 176.685Z" fill="white"/>
<path d="M812.014 108.805L769.657 205.366C769.04 206.869 767.622 207.808 766.019 207.808H743.947C740.679 207.808 738.953 204.928 740.31 202.11L807.39 53.5107C808.068 52.1956 809.116 51.0685 811.027 51.0685H813.185C814.788 51.0058 816.206 52.0078 816.823 53.5107L883.779 202.047C885.074 204.928 883.348 207.746 880.142 207.746H858.07C856.467 207.808 855.048 206.806 854.432 205.303L812.014 108.805Z" fill="white"/>
<path d="M370.199 150.322L412.555 53.6986C413.172 52.1958 414.59 51.2564 416.193 51.2564H438.265C441.533 51.2564 443.259 54.137 441.903 56.9549L374.884 205.491C374.206 206.806 373.158 207.934 371.247 207.934H369.089C367.486 207.996 366.068 206.994 365.451 205.491L298.433 56.9549C297.138 54.0744 298.864 51.2564 302.07 51.2564H324.143C325.746 51.1938 327.164 52.1958 327.78 53.6986L370.199 150.322Z" fill="white"/>
<path d="M465.394 55.5146C465.394 53.2602 467.182 51.2563 469.093 51.2563H487.343C489.316 51.2563 491.042 53.2602 491.042 55.5146V203.675C491.042 205.93 489.254 207.934 487.343 207.934H469.093C467.12 207.934 465.394 205.93 465.394 203.675V55.5146Z" fill="white"/>
<path d="M520.943 55.5146C520.943 53.135 522.792 51.2563 525.135 51.2563H588.331C614.843 51.2563 636.483 72.7353 636.483 99.4117C636.483 120.014 623.043 136.796 603.806 144.624L634.079 201.484C635.62 204.427 634.079 207.996 630.318 207.996H607.136C605.656 208.059 604.3 207.307 603.621 205.992L574.212 146.628H549.674V203.675C549.612 205.992 547.763 207.871 545.481 207.934H525.135C522.792 207.934 520.943 206.055 520.943 203.675V55.5146ZM585.927 122.644C597.641 122.644 607.814 112.374 607.814 99.7875C607.814 87.8895 597.641 78.058 585.927 78.058H549.92V122.581H585.927V122.644Z" fill="white"/>
<path d="M688.521 78.1207H655.474C653.193 78.1207 651.343 76.1794 651.343 73.8624V55.5146C651.343 53.1976 653.131 51.2563 655.412 51.2563C655.412 51.2563 655.412 51.2563 655.474 51.2563H749.929C752.21 51.2563 754.06 53.1976 754.06 55.5146V73.8624C754.06 76.1794 752.272 78.1207 749.99 78.1207C749.99 78.1207 749.99 78.1207 749.929 78.1207H716.882V203.675C716.82 205.992 715.032 207.808 712.751 207.934H692.652C690.37 207.808 688.583 205.992 688.521 203.675V78.1207Z" fill="white"/>
<path d="M909.305 55.5146C909.243 53.1976 911.093 51.319 913.374 51.2563H933.104C935.385 51.3816 937.173 53.1976 937.173 55.5146V181.069H991.86C994.142 181.132 995.991 183.01 995.929 185.327V203.675C995.991 205.992 994.142 207.871 991.86 207.934H913.374C911.093 207.871 909.243 205.992 909.305 203.675V55.5146Z" fill="white"/>
<path d="M1022.01 55.5146C1022.01 53.2602 1023.8 51.2563 1025.71 51.2563H1043.96C1045.93 51.2563 1047.66 53.2602 1047.66 55.5146V203.675C1047.66 205.93 1045.87 207.934 1043.96 207.934H1025.71C1023.74 207.934 1022.01 205.93 1022.01 203.675V55.5146Z" fill="white"/>
<path d="M1073.43 183.887L1081.2 170.111C1082.49 167.668 1085.51 166.792 1087.92 168.107C1088.16 168.232 1088.35 168.357 1088.53 168.545C1089.64 169.234 1107.09 182.322 1121.21 182.322C1132.49 182.322 1140.94 174.744 1140.94 165.226C1140.94 153.892 1131.63 146.127 1113.44 138.612C1093.1 130.158 1072.81 116.82 1072.81 90.6448C1072.81 70.8566 1087.06 48 1121.52 48C1143.59 48 1160.49 59.5848 1164.8 62.9037C1166.96 64.2188 1167.64 68.0387 1166.1 70.2304L1157.9 82.8798C1156.17 85.5099 1152.9 87.3259 1150.31 85.5099C1148.59 84.3827 1132.12 73.2988 1120.23 73.2988C1107.89 73.2988 1101.17 81.7526 1101.17 88.8288C1101.17 99.2864 1109.19 106.363 1126.7 113.689C1147.66 122.331 1171.95 135.231 1171.95 163.911C1171.95 186.768 1152.72 207.871 1122.2 207.871C1094.95 207.871 1078.92 194.783 1074.6 190.525C1072.57 188.584 1071.46 187.456 1073.43 183.887Z" fill="white"/>
<path d="M129.126 30.1793C147.993 20.1634 168.854 15.3199 189.866 16.0769C210.878 16.8338 231.393 23.1679 249.6 34.5195C251.324 35.5943 252.792 37.0884 253.887 38.8832C254.983 40.678 255.675 42.7239 255.91 44.8584L256 46.4895V226.178C256 228.604 255.408 230.988 254.285 233.089C253.162 235.19 251.546 236.935 249.6 238.148C247.654 239.361 245.447 240 243.2 240C240.953 240 238.746 239.361 236.8 238.148C221.233 228.443 203.575 223.333 185.6 223.333C167.625 223.333 149.967 228.443 134.4 238.148C132.454 239.361 130.247 240 128 240C125.753 240 123.546 239.361 121.6 238.148C106.607 228.799 89.6632 223.707 72.353 223.349C55.0427 222.992 37.9311 227.379 22.6176 236.102L18.432 238.59L17.1136 239.198L16.4864 239.419L15.0784 239.779L14.2976 239.917L12.8 240H12.2624L10.8544 239.834L9.8688 239.641L8.4864 239.198L6.8736 238.424L5.6576 237.65L4.5184 236.724L3.7504 235.95L2.816 234.817L1.9968 233.586L1.7152 233.089L1.3056 232.26L0.742401 230.836L0.537601 230.159L0.2048 228.638L0.0768005 227.795L0.0256012 227.118L0 226.178V46.4895C5.7078e-05 44.0632 0.591525 41.6797 1.71496 39.5786C2.83839 37.4774 4.4542 35.7326 6.4 34.5195C24.6067 23.1679 45.1223 16.8338 66.1341 16.0769C87.1458 15.3199 108.007 20.1634 126.874 30.1793L128 30.7875L129.126 30.1793Z" fill="white"/>
<path d="M45 71L100 186" stroke="black" stroke-width="32" stroke-linecap="round"/>
<path d="M155 71L100 186" stroke="black" stroke-width="32" stroke-linecap="round"/>
<path d="M155 71L210 186" stroke="black" stroke-width="32" stroke-linecap="round"/>
</svg>
