<svg width="22" height="22" viewBox="0 0 22 22" fill="none" xmlns="http://www.w3.org/2000/svg">
<path d="M5.63009 16.515L4.90571 15.0293L4.89229 15.0099L3.3374 11.8128V11.8065C3.50875 12.162 3.68009 12.5105 3.84888 12.866C4.02662 13.2333 4.20691 13.5944 4.38465 13.963C4.42429 14.0345 4.45753 14.1116 4.49014 14.183C4.66148 14.5316 4.82643 14.8808 4.99778 15.2293C5.21516 15.6562 5.42614 16.0825 5.63009 16.515Z" fill="currentColor"/>
<path d="M7.8736 13.7649C8.20287 13.1123 8.45988 12.5437 8.4861 12.4854V12.4792L12.6968 3.77614C13.099 3.25896 13.5734 3.00006 14.1136 3.00006C14.5278 3.00186 14.9267 3.15368 15.2337 3.42634C15.3547 3.54587 15.4589 3.68056 15.5438 3.82692L21.7838 16.7169C21.9552 17.0717 22.021 17.3563 21.9942 17.5695C21.9353 17.9763 21.6911 18.5518 21.2269 18.7844C20.5876 19.1009 19.9157 19.0746 19.3556 18.6678C19.2367 18.5838 19.0851 18.4095 18.908 18.1512L14.1283 8.41508L9.3166 18.1581C8.98031 18.7135 8.49952 18.9912 7.86721 18.9912C7.60398 18.994 7.34405 18.9337 7.11005 18.8155C6.87604 18.6973 6.67506 18.5247 6.52459 18.313C6.48034 18.2491 6.44081 18.1823 6.40631 18.113C6.39928 18.0998 6.39288 18.0804 6.38649 18.0678C6.3801 18.0553 6.37306 18.0352 6.36667 18.0221L5.99777 17.2698L5.79126 16.8542L7.8736 13.7649Z" fill="currentColor"/>
<path d="M5.63 16.5151L4.90563 15.0293L4.8922 15.0099C4.7605 14.7322 4.62176 14.4545 4.49005 14.1762C4.45745 14.1053 4.41781 14.0276 4.38456 13.9567C4.20682 13.5888 4.02909 13.2264 3.85135 12.8584C3.68001 12.503 3.50866 12.1545 3.33987 11.799C2.36253 9.78922 1.37666 7.78194 0.382268 5.77717C0.213482 5.42862 0.0357439 5.06001 0.00313739 4.6726C-0.0159047 4.37229 0.0520209 4.07281 0.19908 3.80872C0.346138 3.54462 0.566339 3.32667 0.834285 3.17999C1.10582 3.04201 1.41134 2.98138 1.71623 3.00498C2.02111 3.02858 2.31315 3.13547 2.55924 3.31352C2.95499 3.61066 3.18579 4.07643 3.40317 4.52215L7.86259 13.7756L6.36014 16.5477C6.13637 16.942 5.95863 17.0385 5.80007 16.8611L5.78728 16.8479L5.76746 16.816L5.66837 16.5959" fill="currentColor"/>
</svg>
