<svg width="914" height="128" viewBox="0 0 914 128" fill="none" xmlns="http://www.w3.org/2000/svg">
<path d="M625.299 48.644L591.414 125.893C590.92 127.095 589.786 127.847 588.504 127.847H570.846C568.232 127.847 566.851 125.543 567.936 123.288L621.6 4.40863C622.142 3.3566 622.981 2.45486 624.51 2.45486H626.236C627.519 2.40476 628.653 3.20631 629.146 4.40863L682.712 123.238C683.748 125.542 682.367 127.797 679.802 127.797H662.144C660.861 127.847 659.727 127.045 659.234 125.843L625.299 48.644Z" fill="white"/>
<path d="M271.846 81.8582L305.732 4.55902C306.225 3.3567 307.359 2.60525 308.642 2.60525H326.3C328.914 2.60525 330.295 4.9097 329.21 7.16405L275.595 125.993C275.052 127.045 274.214 127.947 272.685 127.947H270.959C269.676 127.997 268.542 127.196 268.048 125.993L214.434 7.16405C213.398 4.8596 214.779 2.60525 217.344 2.60525H235.002C236.284 2.55515 237.418 3.3567 237.912 4.55902L271.846 81.8582Z" fill="white"/>
<path d="M348.002 6.01168C348.002 4.2082 349.433 2.6051 350.962 2.6051H365.562C367.14 2.6051 368.521 4.2082 368.521 6.01168V124.541C368.521 126.344 367.091 127.947 365.562 127.947H350.962C349.384 127.947 348.002 126.344 348.002 124.541V6.01168Z" fill="white"/>
<path d="M392.442 6.01168C392.442 4.108 393.922 2.6051 395.796 2.6051H446.353C467.562 2.6051 484.875 19.7883 484.875 41.1295C484.875 57.6113 474.122 71.0372 458.733 77.2993L482.951 122.787C484.184 125.142 482.951 127.997 479.942 127.997H461.397C460.213 128.047 459.128 127.446 458.585 126.394L435.058 78.9024H415.427V124.541C415.378 126.394 413.898 127.897 412.073 127.947H395.796C393.922 127.947 392.442 126.444 392.442 124.541V6.01168ZM444.429 59.7154C453.801 59.7154 461.939 51.4995 461.939 41.4301C461.939 31.9117 453.801 24.0465 444.429 24.0465H415.624V59.6653H444.429V59.7154Z" fill="white"/>
<path d="M526.505 24.0966H500.067C498.242 24.0966 496.762 22.5436 496.762 20.69V6.01168C496.762 4.1581 498.193 2.6051 500.018 2.6051C500.018 2.6051 500.018 2.6051 500.067 2.6051H575.631C577.456 2.6051 578.936 4.1581 578.936 6.01168V20.69C578.936 22.5436 577.505 24.0966 575.68 24.0966C575.68 24.0966 575.68 24.0966 575.631 24.0966H549.193V124.541C549.144 126.394 547.714 127.847 545.889 127.947H529.809C527.984 127.847 526.554 126.394 526.505 124.541V24.0966Z" fill="white"/>
<path d="M703.132 6.01168C703.083 4.1581 704.563 2.6552 706.388 2.6051H722.171C723.996 2.7053 725.427 4.1581 725.427 6.01168V106.456H769.177C771.002 106.506 772.481 108.009 772.432 109.862V124.541C772.481 126.394 771.002 127.897 769.177 127.947H706.388C704.563 127.897 703.083 126.394 703.132 124.541V6.01168Z" fill="white"/>
<path d="M793.295 6.01168C793.295 4.2082 794.726 2.6051 796.255 2.6051H810.855C812.433 2.6051 813.814 4.2082 813.814 6.01168V124.541C813.814 126.344 812.384 127.947 810.855 127.947H796.255C794.676 127.947 793.295 126.344 793.295 124.541V6.01168Z" fill="white"/>
<path d="M834.432 108.71L840.647 97.6886C841.683 95.7348 844.1 95.0335 846.023 96.0855C846.22 96.1857 846.368 96.2859 846.516 96.4362C847.404 96.9872 861.363 107.457 872.658 107.457C881.684 107.457 888.441 101.396 888.441 93.781C888.441 84.7135 880.994 78.5016 866.443 72.4899C850.166 65.7269 833.939 55.0563 833.939 34.1159C833.939 18.2853 845.333 0 872.905 0C890.562 0 904.077 9.26789 907.53 11.923C909.256 12.975 909.799 16.0309 908.565 17.7843L902.005 27.9039C900.624 30.0079 898.01 31.4607 895.939 30.0079C894.558 29.1062 881.388 20.2391 871.869 20.2391C862.004 20.2391 856.628 27.0021 856.628 32.6631C856.628 41.0292 863.04 46.6901 877.048 52.5515C893.818 59.4648 913.251 69.7847 913.251 92.729C913.251 111.014 897.862 127.897 873.447 127.897C851.646 127.897 838.822 117.427 835.369 114.02C833.742 112.467 832.854 111.565 834.432 108.71Z" fill="white"/>
<path fill-rule="evenodd" clip-rule="evenodd" d="M60.7416 86.1162C63.2571 80.9061 65.2794 76.3473 65.4767 75.8964V75.8463L97.981 6.31209C101.088 2.20416 104.738 0.100098 108.931 0.100098C112.137 0.100098 115.195 1.35252 117.562 3.50667C118.5 4.45851 119.289 5.56064 119.979 6.71286L168.021 109.712C169.352 112.567 169.846 114.822 169.648 116.525C169.204 119.781 167.33 124.39 163.729 126.244C158.797 128.748 153.618 128.548 149.278 125.292C148.34 124.641 147.206 123.238 145.825 121.184L108.98 43.3837L71.8394 121.234C69.2253 125.693 65.526 127.897 60.643 127.897C56.4998 127.947 52.6525 125.893 50.285 122.486C49.9397 121.985 49.6438 121.434 49.3972 120.883C49.3479 120.783 49.2985 120.633 49.2492 120.533C49.1999 120.432 49.1506 120.282 49.1012 120.182L46.2405 114.12L44.6621 110.814L60.7416 86.1162Z" fill="white"/>
<path fill-rule="evenodd" clip-rule="evenodd" d="M43.4287 108.109L37.8552 96.2359L37.7565 96.0856C36.7207 93.8814 35.6849 91.627 34.6491 89.4228C34.4025 88.8717 34.1066 88.2204 33.8106 87.6694C32.4296 84.7137 31.0485 81.8582 29.7168 78.9024C28.385 76.0469 27.0533 73.2916 25.7709 70.4361C18.2244 54.3551 10.6285 38.3241 2.93403 22.2932C1.65162 19.4877 0.270553 16.532 0.0239349 13.4761C-0.272007 8.56666 2.19418 3.95777 6.43601 1.55312C10.7272 -0.701229 15.8568 -0.250358 19.7534 2.65525C22.8115 5.05989 24.5871 8.76705 26.2641 12.3239L60.6427 86.2166L49.0516 108.359C47.3253 111.515 45.9443 112.267 44.7112 110.914L44.6125 110.814L44.4645 110.564L43.6754 108.81" fill="white"/>
</svg>
